<?xml version="1.0" encoding="UTF-8"?>
<svg id="Layer_2" data-name="Layer 2" xmlns="http://www.w3.org/2000/svg" viewBox="0 0 526.68 123.33">
  <defs>
    <style>
      .cls-1 {
        fill: #121828;
      }
    </style>
  </defs>
  <g id="Layer_1-2" data-name="Layer 1">
    <g>
      <path class="cls-1" d="M35.76,122.98c-8.62,1.56-18.73-2.01-20.47-11.42L.33,30.73C-1.68,19.86,5.65,11.82,15.83,9.96L68.11.37c9.8-1.8,19.35,3.02,21.12,13.64l13.41,80.51c1.71,10.25-6.45,18.99-16.22,19.29l-50.67,9.17ZM32.32,113.71l55.86-10.1c3.06-.55,6.03-4.62,5.5-7.65l-13.81-79.92c-.9-5.19-4.75-7-9.53-6.13L15.48,19.87c-4.21.77-6.29,5.31-5.59,9.26l14.1,78.84c.69,3.86,4.31,6.47,8.33,5.75Z"/>
      <path class="cls-1" d="M117.87,33.81l-9.2,57.5-12.31-71.82,13.79,2.33c4.99.84,8.6,6.55,7.72,12Z"/>
      <path class="cls-1" d="M29.66,75.47l11.62-4.2c4.34,3.59,9.37,4.85,14.21,3.18s8.56-6.12,9.21-11.61l-3.48-1.59,3.62-4.07,11.56-4.01c3.87,14.89-4.58,28.78-18.4,33.24-10.57,2.05-21.17-.69-28.32-10.93Z"/>
      <path class="cls-1" d="M48.6,47.49c-7.21,1.69-10.93,10.97-10.07,11.58l3.09,2.17c-.86.89-3.7,3.99-5.3,4.45l-9.41,2.71c-2.09-9.61.47-18.94,7.42-25.7,11.58-11.27,30.22-9.32,38.99,4.15l-11.68,3.98c-4.19-3.1-8.28-4.45-13.03-3.34Z"/>
      <g>
        <g>
          <path class="cls-1" d="M468.35,113.09c0-1.58,1.06-2.68,2.59-2.68s2.53,1.06,2.56,2.68c0,1.52-1.04,2.65-2.62,2.65-1.47,0-2.53-1.12-2.53-2.65Z"/>
          <path class="cls-1" d="M486.7,115.05c-.78.37-2.24.66-3.91.66-4.55,0-7.45-2.79-7.45-7.19,0-4.11,2.82-7.48,8.05-7.48,1.15,0,2.42.2,3.34.55l-.69,3.25c-.52-.23-1.29-.43-2.45-.43-2.3,0-3.8,1.64-3.77,3.94,0,2.56,1.73,3.94,3.85,3.94,1.04,0,1.84-.17,2.5-.46l.52,3.22Z"/>
          <path class="cls-1" d="M502.69,108.23c0,5.15-3.65,7.51-7.42,7.51-4.11,0-7.28-2.7-7.28-7.25s2.99-7.48,7.54-7.48c4.29,0,7.16,2.96,7.16,7.22ZM492.51,108.37c0,2.42,1.01,4.23,2.88,4.23,1.73,0,2.79-1.7,2.79-4.26,0-2.07-.81-4.2-2.79-4.2s-2.88,2.16-2.88,4.23Z"/>
          <path class="cls-1" d="M505.4,105.84c0-1.75-.06-3.22-.12-4.49h3.71l.17,1.9h.09c.6-.92,1.87-2.24,4.26-2.24,1.84,0,3.25.95,3.85,2.42h.06c.55-.75,1.15-1.32,1.84-1.73.78-.43,1.64-.69,2.68-.69,2.7,0,4.75,1.9,4.75,6.13v8.28h-4.26v-7.65c0-2.04-.66-3.22-2.07-3.22-1.04,0-1.73.69-2.04,1.52-.09.32-.14.75-.14,1.12v8.23h-4.26v-7.91c0-1.75-.63-2.96-2.04-2.96-1.12,0-1.78.86-2.04,1.55-.14.35-.17.75-.17,1.12v8.2h-4.26v-9.58Z"/>
        </g>
        <g>
          <path class="cls-1" d="M143.88,61.09c0-5.78-.18-10.66-.36-14.82h11.93l.63,6.15h.18c3.25-4.61,8.31-7.14,14.73-7.14,9.67,0,18.35,8.4,18.35,22.5,0,16.09-10.21,23.68-20.06,23.68-5.33,0-9.49-2.17-11.48-5.06h-.18v21.96h-13.74v-47.26ZM157.62,71.48c0,1.08.09,1.99.27,2.89.9,3.71,4.07,6.51,8.04,6.51,5.96,0,9.49-4.97,9.49-12.47,0-7.05-3.16-12.38-9.31-12.38-3.89,0-7.32,2.89-8.22,6.96-.18.72-.27,1.63-.27,2.44v6.05Z"/>
          <path class="cls-1" d="M241.84,67.86c0,16.18-11.48,23.59-23.32,23.59-12.92,0-22.86-8.5-22.86-22.77s9.4-23.5,23.68-23.5c13.47,0,22.5,9.31,22.5,22.68ZM209.85,68.32c0,7.59,3.16,13.28,9.04,13.28,5.42,0,8.77-5.33,8.77-13.37,0-6.51-2.53-13.19-8.77-13.19s-9.04,6.78-9.04,13.28Z"/>
          <path class="cls-1" d="M264.07,64.88h.18c.99-1.9,2.08-3.71,3.16-5.33l8.95-13.28h16.54l-15.81,17.89,18.07,26.3h-16.9l-10.75-18.16-3.43,4.34v13.83h-13.74V26.29h13.74v38.59Z"/>
          <path class="cls-1" d="M308.62,72.74c.36,5.69,6.05,8.4,12.47,8.4,4.7,0,8.49-.63,12.2-1.9l1.81,9.31c-4.52,1.9-10.03,2.8-16,2.8-15,0-23.59-8.68-23.59-22.5,0-11.21,6.96-23.59,22.32-23.59,14.28,0,19.7,11.12,19.7,22.05,0,2.35-.27,4.43-.45,5.42h-28.47ZM324.8,63.35c0-3.34-1.45-8.95-7.77-8.95-5.78,0-8.13,5.33-8.49,8.95h16.27Z"/>
        </g>
        <g>
          <path class="cls-1" d="M361.13,34.34v11.93h9.85v10.12h-9.85v16c0,5.33,1.36,7.77,5.42,7.77,1.9,0,2.8-.09,4.07-.36l.09,10.39c-1.72.63-5.06,1.17-8.86,1.17-4.43,0-8.13-1.54-10.39-3.8-2.53-2.62-3.8-6.87-3.8-13.1v-18.07h-5.87v-10.12h5.87v-8.22l13.47-3.71Z"/>
          <path class="cls-1" d="M422.13,67.86c0,16.18-11.48,23.59-23.32,23.59-12.92,0-22.86-8.5-22.86-22.77s9.4-23.5,23.68-23.5c13.47,0,22.5,9.31,22.5,22.68ZM390.14,68.32c0,7.59,3.16,13.28,9.04,13.28,5.42,0,8.77-5.33,8.77-13.37,0-6.51-2.53-13.19-8.77-13.19s-9.04,6.78-9.04,13.28Z"/>
          <path class="cls-1" d="M430.62,61.09c0-5.78-.18-10.66-.36-14.82h11.93l.63,6.15h.18c3.25-4.61,8.31-7.14,14.73-7.14,9.67,0,18.35,8.4,18.35,22.5,0,16.09-10.21,23.68-20.06,23.68-5.33,0-9.49-2.17-11.48-5.06h-.18v21.96h-13.74v-47.26ZM444.36,71.48c0,1.08.09,1.99.27,2.89.9,3.71,4.07,6.51,8.04,6.51,5.96,0,9.49-4.97,9.49-12.47,0-7.05-3.16-12.38-9.31-12.38-3.89,0-7.32,2.89-8.22,6.96-.18.72-.27,1.63-.27,2.44v6.05Z"/>
          <path class="cls-1" d="M526.32,76.27c0,5.78.18,10.48.36,14.19h-11.93l-.63-6.24h-.27c-1.72,2.71-5.87,7.23-13.83,7.23-9.04,0-15.54-5.6-15.54-19.25v-25.94h13.74v23.77c0,6.42,2.08,10.3,6.96,10.3,3.8,0,6.05-2.62,6.87-4.79.36-.81.54-1.81.54-2.98v-26.3h13.74v30Z"/>
        </g>
      </g>
    </g>
  </g>
</svg>