<?xml version="1.0" encoding="UTF-8"?>
<svg id="Layer_2" data-name="Layer 2" xmlns="http://www.w3.org/2000/svg" viewBox="0 0 1048.92 248.34">
  <defs>
    <style>
      .cls-1 {
        fill: #121828;
      }

      .cls-2 {
        fill: #d00021;
      }
    </style>
  </defs>
  <g id="Layer_1-2" data-name="Layer 1">
    <g>
      <path class="cls-2" d="M69.34,247.72c-20.24,3.63-36.44-9-39.94-28.15L.53,61.86c-3.1-16.95,7.57-35.31,24.82-38.68L140.65.64c19.72-3.86,35.99,10.29,39.27,29.16l27.08,155.61c3.88,22.27-8.82,39.22-31.02,43.2l-106.65,19.12ZM63.06,228.99l115.06-21.16c6.94-1.28,11.52-9.76,10.37-16.36l-27.37-157.22c-1.52-8.75-7.67-15.96-17.44-14.09L30.91,41.73c-8.67,1.66-12.69,10.11-11.21,18.27l28.34,155.28c1.42,7.78,6.68,13.36,15.01,13.7Z"/>
      <path class="cls-1" d="M238.63,69.11l-18.28,117.94-25.92-147.25,27.66,5.26c10.58,3.16,17.42,12.2,16.54,24.04Z"/>
      <path class="cls-1" d="M84.3,144.35c8.6,7.45,19.23,9.79,29.35,5.84,9.3-3.63,16.96-12.38,17.39-24.06l-8.04-.49,7.14-9.75,24.12-7.28c7.32,26.17-7.25,54.88-33.19,64.26-22.88,8.27-47.8-.95-61.01-21.16l24.24-7.36Z"/>
      <path class="cls-2" d="M84.37,122.05l-7.44,10.18-22.46,6.53c-6.31-25.32,6.3-51.92,30.03-62.34,23.34-10.25,49.98-1.97,64.24,19.27l-24.17,7.69c-8.73-7.54-19.66-10.11-30.69-5.49-8.54,3.57-15.99,12.56-16.67,23.43l7.16.74Z"/>
      <g>
        <g>
          <path class="cls-1" d="M930.92,231.51c0-3.2,2.15-5.41,5.24-5.41s5.12,2.15,5.18,5.41c0,3.08-2.09,5.35-5.29,5.35-2.97,0-5.12-2.27-5.12-5.35Z"/>
          <path class="cls-1" d="M968.04,235.47c-1.57.76-4.54,1.34-7.91,1.34-9.19,0-15.07-5.64-15.07-14.55,0-8.32,5.7-15.13,16.29-15.13,2.33,0,4.89.41,6.75,1.11l-1.4,6.57c-1.05-.47-2.62-.87-4.95-.87-4.65,0-7.68,3.32-7.62,7.97,0,5.18,3.49,7.97,7.8,7.97,2.09,0,3.72-.35,5.06-.93l1.05,6.52Z"/>
          <path class="cls-1" d="M1000.39,221.68c0,10.41-7.39,15.19-15.01,15.19-8.32,0-14.72-5.47-14.72-14.66s6.05-15.13,15.24-15.13c8.67,0,14.49,5.99,14.49,14.6ZM979.8,221.97c0,4.89,2.04,8.55,5.82,8.55,3.49,0,5.64-3.43,5.64-8.61,0-4.19-1.63-8.49-5.64-8.49s-5.82,4.36-5.82,8.55Z"/>
          <path class="cls-1" d="M1005.86,216.85c0-3.55-.12-6.52-.23-9.08h7.51l.35,3.84h.17c1.22-1.86,3.78-4.54,8.61-4.54,3.72,0,6.57,1.92,7.8,4.89h.12c1.11-1.51,2.33-2.68,3.72-3.49,1.57-.87,3.32-1.4,5.41-1.4,5.47,0,9.6,3.84,9.6,12.39v16.76h-8.61v-15.48c0-4.13-1.34-6.52-4.19-6.52-2.09,0-3.49,1.4-4.13,3.08-.17.64-.29,1.51-.29,2.27v16.64h-8.61v-16c0-3.55-1.28-5.99-4.13-5.99-2.27,0-3.61,1.75-4.13,3.14-.29.7-.35,1.51-.35,2.27v16.58h-8.61v-19.37Z"/>
        </g>
        <g>
          <path class="cls-1" d="M274.65,126.32c0-11.7-.37-21.57-.73-29.98h24.13l1.28,12.43h.37c6.58-9.32,16.82-14.44,29.79-14.44,19.56,0,37.11,17,37.11,45.51,0,32.54-20.65,47.89-40.58,47.89-10.78,0-19.19-4.39-23.21-10.24h-.37v44.42h-27.78v-95.6ZM302.44,147.35c0,2.19.18,4.02.55,5.85,1.83,7.49,8.23,13.16,16.27,13.16,12.06,0,19.19-10.05,19.19-25.22,0-14.26-6.4-25.04-18.83-25.04-7.86,0-14.81,5.85-16.63,14.07-.37,1.46-.55,3.29-.55,4.94v12.25Z"/>
          <path class="cls-1" d="M472.79,140.03c0,32.72-23.21,47.71-47.16,47.71-26.14,0-46.24-17.18-46.24-46.06s19.01-47.52,47.89-47.52c27.24,0,45.51,18.83,45.51,45.88ZM408.08,140.95c0,15.35,6.4,26.87,18.28,26.87,10.97,0,17.73-10.78,17.73-27.05,0-13.16-5.12-26.69-17.73-26.69s-18.28,13.71-18.28,26.87Z"/>
          <path class="cls-1" d="M517.75,134h.37c2.01-3.84,4.2-7.49,6.4-10.78l18.1-26.87h33.45l-31.99,36.19,36.56,53.19h-34.18l-21.75-36.74-6.95,8.77v27.97h-27.78V55.95h27.78v78.05Z"/>
          <path class="cls-1" d="M607.86,149.9c.73,11.52,12.25,17,25.22,17,9.5,0,17.18-1.28,24.68-3.84l3.66,18.83c-9.14,3.84-20.29,5.67-32.35,5.67-30.34,0-47.71-17.55-47.71-45.51,0-22.67,14.07-47.71,45.15-47.71,28.88,0,39.85,22.48,39.85,44.6,0,4.75-.55,8.96-.91,10.97h-57.58ZM640.58,130.89c0-6.76-2.92-18.1-15.72-18.1-11.7,0-16.45,10.78-17.18,18.1h32.9Z"/>
        </g>
        <g>
          <path class="cls-2" d="M714.06,72.22v24.13h19.92v20.47h-19.92v32.35c0,10.78,2.74,15.72,10.97,15.72,3.84,0,5.67-.18,8.23-.73l.18,21.02c-3.47,1.28-10.24,2.38-17.91,2.38-8.96,0-16.45-3.11-21.02-7.68-5.12-5.3-7.68-13.89-7.68-26.5v-36.56h-11.88v-20.47h11.88v-16.63l27.23-7.49Z"/>
          <path class="cls-2" d="M837.44,140.03c0,32.72-23.21,47.71-47.16,47.71-26.14,0-46.24-17.18-46.24-46.06s19.01-47.52,47.89-47.52c27.24,0,45.51,18.83,45.51,45.88ZM772.73,140.95c0,15.35,6.4,26.87,18.28,26.87,10.97,0,17.73-10.78,17.73-27.05,0-13.16-5.12-26.69-17.73-26.69s-18.28,13.71-18.28,26.87Z"/>
          <path class="cls-2" d="M854.62,126.32c0-11.7-.37-21.57-.73-29.98h24.13l1.28,12.43h.37c6.58-9.32,16.82-14.44,29.79-14.44,19.56,0,37.11,17,37.11,45.51,0,32.54-20.65,47.89-40.58,47.89-10.78,0-19.19-4.39-23.21-10.24h-.37v44.42h-27.78v-95.6ZM882.4,147.35c0,2.19.18,4.02.55,5.85,1.83,7.49,8.23,13.16,16.27,13.16,12.06,0,19.19-10.05,19.19-25.22,0-14.26-6.4-25.04-18.83-25.04-7.86,0-14.81,5.85-16.63,14.07-.37,1.46-.55,3.29-.55,4.94v12.25Z"/>
          <path class="cls-2" d="M1048.19,157.03c0,11.7.37,21.2.73,28.7h-24.13l-1.28-12.61h-.55c-3.47,5.48-11.88,14.62-27.97,14.62-18.28,0-31.44-11.33-31.44-38.93v-52.46h27.78v48.07c0,12.98,4.2,20.84,14.07,20.84,7.68,0,12.25-5.3,13.89-9.69.73-1.65,1.1-3.66,1.1-6.03v-53.19h27.78v60.68Z"/>
        </g>
      </g>
    </g>
  </g>
</svg>