<?xml version="1.0" encoding="UTF-8"?>
<svg id="Layer_2" data-name="Layer 2" xmlns="http://www.w3.org/2000/svg" viewBox="0 0 199.89 209.29">
  <defs>
    <style>
      .cls-1 {
        fill: #121828;
      }

      .cls-2 {
        fill: #d00021;
      }
    </style>
  </defs>
  <g id="Layer_1-2" data-name="Layer 1">
    <g>
      <path class="cls-2" d="M55.66,208.86c-15.86,2.93-28.19-9.56-30.87-24.39L.35,49.31c-2.47-13.65,8.3-27.86,21.12-30.27L120.71.33c12.56-2.37,26.69,8.26,28.94,20.85l24.09,134.95c2.58,14.47-3.9,31.66-19.67,34.57l-98.41,18.15ZM54.16,192.87l94.83-17.57c6.91-1.28,10.48-8.68,9.31-15.3l-23.25-131.32c-1.02-5.77-5.57-13.42-12.6-12.13L28.95,33.72c-7.3,1.34-14.05,6.49-12.51,14.96l23.89,131.8c1.19,6.56,5.49,13.94,13.83,12.39Z"/>
      <path class="cls-1" d="M199.63,58.73l-14.96,97.96-21.85-123.36,22.68,3.75c9.67,1.6,15.71,11.27,14.13,21.65Z"/>
      <path class="cls-1" d="M70.38,121.47c7.8,6.17,16.99,8.26,26,4.19,7.37-3.32,13.64-11.08,13.91-20.11l-6.92-.38,6.97-8.2,19.24-6.02c6.43,24.15-7.41,49.18-31.42,55.66-18.48,4.99-37.97-3.29-48.04-19.14l20.28-5.99Z"/>
      <path class="cls-2" d="M70.89,103.25l-6.91,8.18-18.44,4.89c-3.2-14.48.34-29.43,9.69-40.53,8.99-10.67,21.79-16.35,35.56-15.55s25.51,7.35,33.94,19.88l-20.05,6.54c-7.16-6.64-16.23-8.42-25.39-4.63-7.12,2.95-13.65,10.77-14.43,20l6.03,1.22Z"/>
    </g>
  </g>
</svg>